# xmcd
#
# Track frame offsets: 
#        150
#        12718
#        29102
#        47717
#        67104
#        77851
#        94734
#        119809
#        143176
#        161241
#        178469
#        194699
#        212453
#        231055
#
# Disc length: 3245 seconds
#
# Revision: 0
# Processed by: cddbd v1.5.2PL0 Copyright (c) Steve Scherf et al.
# Submitted via: ExactAudioCopy v1.1
#
DISCID=de0cab0e
DTITLE=Mel Besher - 'Till Life Has Had Its Way
DYEAR=2012
DGENRE=Country
TTITLE0=Welcome to the Human Race
TTITLE1=The Only One - In the Park (Medley)
TTITLE2=When I Get What I Want
TTITLE3=What a Day Yesterday Was
TTITLE4=Got a Bunch of Trouble
TTITLE5=Cell 215
TTITLE6=Men From Earth
TTITLE7=Peaks and Valleys
TTITLE8='Till Life Has Had Its Way
TTITLE9=Hank's Lost Highway
TTITLE10=You With Me
TTITLE11=Old Friend New Angel
TTITLE12=The Empty Place
TTITLE13=Real Good Time
EXTD=
EXTT0=
EXTT1=
EXTT2=
EXTT3=
EXTT4=
EXTT5=
EXTT6=
EXTT7=
EXTT8=
EXTT9=
EXTT10=
EXTT11=
EXTT12=
EXTT13=
PLAYORDER=
